<?xml version="1.0" encoding="UTF-8"?>
<svg id="Ebene_1" xmlns="http://www.w3.org/2000/svg" version="1.1" viewBox="0 0 500 500">
  <defs>
    <style>
      .st0 { fill: #2f343c; }
    </style>
  </defs>
  <path class="st0" d="M250,0C111.9,0,0,111.9,0,250s29.8,135.5,77.5,181v-179.8c0-93.8,76.6-173.6,170.2-174.8,97-1.1,175.9,78,174.8,174.8-1.4,93.6-81.2,170.2-174.8,170.2h-43.7c-6.4,0-11.5,5.1-11.5,11.5v60.5c18.4,4.4,37.7,6.7,57.5,6.7,138.1,0,250-111.9,250-250S388.1,0,250,0Z"/>
  <path class="st0" d="M204,306.4h44.6c31,0,58.2-23.7,58.9-56.3.7-32.7-27.6-59.3-58.6-58.6-31,.7-56.3,27.8-56.3,58.9v44.6c0,6.4,5.1,11.5,11.5,11.5Z"/>
</svg>
